<?xml version="1.0" encoding="UTF-8" standalone="no"?>
<svg
   width="813.87634"
   height="240.4044"
   viewBox="0 0 815.876 240.99507"
   version="1.1"
   id="svg13"
   sodipodi:docname="accountable-ai-wordmark.svg"
   inkscape:version="1.3.2 (091e20e, 2023-11-25)"
   xmlns:inkscape="http://www.inkscape.org/namespaces/inkscape"
   xmlns:sodipodi="http://sodipodi.sourceforge.net/DTD/sodipodi-0.dtd"
   xmlns="http://www.w3.org/2000/svg"
   xmlns:svg="http://www.w3.org/2000/svg">
  <defs
     id="defs13" />
  <sodipodi:namedview
     id="namedview13"
     pagecolor="#ffffff"
     bordercolor="#000000"
     borderopacity="0.25"
     inkscape:showpageshadow="2"
     inkscape:pageopacity="0.0"
     inkscape:pagecheckerboard="0"
     inkscape:deskcolor="#d1d1d1"
     labelstyle="default"
     inkscape:zoom="1.1253621"
     inkscape:cx="529.60731"
     inkscape:cy="147.06378"
     inkscape:window-width="2560"
     inkscape:window-height="1412"
     inkscape:window-x="0"
     inkscape:window-y="480"
     inkscape:window-maximized="0"
     inkscape:current-layer="svg13" />
  <!-- Accountable AI · Cormorant Garamond 400 / 600
       Tracking: Accountable +18/1000em  AI +60/1000em
       Word gap: +0.38em · Cap height: 100px · Outlines only -->
  <g
     fill="#111111"
     transform="matrix(0.16,0,0,-0.16,0.48,116)"
     id="g11">
    <path
       d="m 194,275 10,20 h 265 l 7,-20 z M 699,12 q 4,0 4,-6 0,-6 -4,-6 -29,0 -59,2 -30,2 -58,2 -31,0 -54,-2 -23,-2 -51,-2 -4,0 -4,6 0,6 4,6 53,0 66,15.5 Q 556,43 536,86 L 314,555 339,586 145,127 q -25,-61 -3,-88 22,-27 87,-27 5,0 5,-6 0,-6 -5,-6 Q 199,0 174,2 149,4 111,4 75,4 53.5,2 32,0 1,0 -3,0 -3,6 -3,12 1,12 28,12 48,22.5 68,33 85.5,59.5 103,86 124,136 l 211,498 q 2,3 7,3 5,0 6,-3 L 584,137 Q 607,88 625,60.5 643,33 660.5,22.5 678,12 699,12 Z"
       id="path1" />
    <path
       transform="translate(720)"
       d="M 231,-12 Q 163,-12 120,17.5 77,47 56.5,92.5 36,138 36,185 q 0,50 19.5,89 19.5,39 51.5,66 32,27 71,41 39,14 76,14 29,0 55.5,-7.5 26.5,-7.5 44,-21.5 17.5,-14 17.5,-32 0,-13 -9,-22.5 -9,-9.5 -26,-9.5 -16,0 -26.5,10 -10.5,10 -17.5,23 -11,18 -26,29 -15,11 -45,11 -57,0 -88,-44.5 Q 102,286 102,215 102,164 119.5,120 137,76 174,49.5 211,23 270,23 q 27,0 53,7 26,7 49,26 2,2 5.5,-2 Q 381,50 379,48 344,17 309,2.5 274,-12 231,-12 Z"
       id="path2" />
    <path
       transform="translate(1149)"
       d="M 231,-12 Q 163,-12 120,17.5 77,47 56.5,92.5 36,138 36,185 q 0,50 19.5,89 19.5,39 51.5,66 32,27 71,41 39,14 76,14 29,0 55.5,-7.5 26.5,-7.5 44,-21.5 17.5,-14 17.5,-32 0,-13 -9,-22.5 -9,-9.5 -26,-9.5 -16,0 -26.5,10 -10.5,10 -17.5,23 -11,18 -26,29 -15,11 -45,11 -57,0 -88,-44.5 Q 102,286 102,215 102,164 119.5,120 137,76 174,49.5 211,23 270,23 q 27,0 53,7 26,7 49,26 2,2 5.5,-2 Q 381,50 379,48 344,17 309,2.5 274,-12 231,-12 Z"
       id="path3" />
    <path
       transform="translate(1578)"
       d="M 231,-13 Q 172,-13 128,16 84,45 60,93.5 36,142 36,198 q 0,52 19,90 19,38 51,62.5 32,24.5 69.5,36.5 37.5,12 73.5,12 61,0 104.5,-30 Q 397,339 420,292 443,245 443,193 443,129 414,83 385,37 337,12 289,-13 231,-13 Z m 29,19 q 53,0 84,37.5 31,37.5 31,121.5 0,63 -20.5,111.5 Q 334,325 298,352.5 262,380 216,380 163,380 133,341 103,302 103,229 103,168 123,117 143,66 178.5,36 214,6 260,6 Z"
       id="path4" />
    <path
       transform="translate(2075)"
       d="M 182,-8 Q 133,-8 104.5,23.5 76,55 76,115 v 153 q 0,39 -6.5,56.5 Q 63,342 46,342 32,342 12,332 8,331 5.5,337 3,343 7,344 l 111,50 q 2,1 4,1 3,0 6.5,-2.5 Q 132,390 132,387 V 148 Q 132,89 153,60.5 174,32 216,32 q 38,0 76.5,23 38.5,23 67.5,62 l 5,-11 Q 319,47 274.5,19.5 230,-8 182,-8 Z M 397,387 V 107 q 0,-34 8,-49 8,-15 27,-15 10,0 22.5,3.5 Q 467,50 485,57 q 5,2 7,-3.5 2,-5.5 -2,-7.5 L 373,-9 q -2,-1 -4,-1 -8,0 -18,21.5 Q 341,33 341,73 v 195 q 0,39 -6.5,56.5 Q 328,342 311,342 q -14,0 -34,-10 -4,-1 -6,5 -2,6 2,7 l 111,50 q 2,1 3,1 3,0 6.5,-2.5 3.5,-2.5 3.5,-5.5 z"
       id="path5" />
    <path
       transform="translate(2586)"
       d="m 314,0 q -3,0 -3,6 0,6 3,6 39,0 50.5,13.5 Q 376,39 376,81 v 162 q 0,60 -22,87.5 -22,27.5 -70,27.5 -36,0 -74,-23 -38,-23 -65,-63 l -4,12 q 44,59 87.5,87 43.5,28 88.5,28 55,0 85.5,-30.5 Q 433,338 433,277 V 81 Q 433,39 444.5,25.5 456,12 495,12 q 3,0 3,-6 0,-6 -3,-6 Q 478,0 454.5,1 431,2 405,2 379,2 355,1 331,0 314,0 Z M 45,0 q -3,0 -3,6 0,6 3,6 39,0 50.5,13.5 Q 107,39 107,81 v 198 q 0,33 -7.5,48.5 Q 92,343 72,343 62,343 48.5,339 35,335 18,328 q -4,-1 -6.5,4 -2.5,5 1.5,7 l 116,55 q 3,1 6,1 7,0 18,-21 11,-21 11,-61 V 81 Q 164,39 175.5,25.5 187,12 226,12 q 3,0 3,-6 0,-6 -3,-6 Q 209,0 185.5,1 162,2 136,2 110,2 86,1 62,0 45,0 Z"
       id="path6" />
    <path
       transform="translate(3121)"
       d="m 188,-12 q -24,0 -46,7.5 Q 120,3 106,21 92,39 92,70 v 235 q 0,24 -3,36 -3,12 -14,15.5 -11,3.5 -34,3.5 -4,0 -4,6.5 0,6.5 4,6.5 40,1 65.5,22 25.5,21 28.5,54 0,3 7.5,3 7.5,0 7.5,-3 V 104 Q 150,63 170.5,43 191,23 229,23 255,23 275.5,31.5 296,40 309,51 q 4,2 7.5,-2.5 Q 320,44 316,41 279,13 249.5,0.5 220,-12 188,-12 Z m 97,349 q -39,10 -75,13 -36,3 -77,3 v 22 q 40,0 77,3 37,3 79,7 2,0 4.5,-7 2.5,-7 2.5,-17 0,-7 -3.5,-16 -3.5,-9 -7.5,-8 z"
       id="path7" />
    <path
       transform="translate(3477)"
       d="m 314,-6 q -4,-2 -8,-2 -13,0 -25,21.5 Q 269,35 269,76 v 189 q 0,62 -17.5,87 Q 234,377 206,377 181,377 165,364.5 149,352 141.5,335 134,318 131,303 128,289 121,275.5 114,262 93,262 q -17,0 -25,9.5 -8,9.5 -8,20.5 0,19 18.5,37 18.5,18 47,33.5 28.5,15.5 60,24.5 31.5,9 56.5,9 41,0 62,-26.5 Q 325,343 325,295 V 108 q 0,-35 9,-51 9,-16 29,-16 18,0 50,13 5,2 7,-3.5 2,-5.5 -3,-7.5 z M 134,-7 Q 96,-7 76,13.5 56,34 56,62 56,82 66.5,98.5 77,115 100,129 q 23,14 59,27 l 120,45 3,-13 -106,-41 q -18,-7 -30,-16 -12,-9 -17.5,-20 -5.5,-11 -5.5,-24 0,-23 15,-40 15,-17 41,-17 10,0 21,3 11,3 27,13 l 63,38 2,-13 -74,-48 Q 194,7 174.5,0 155,-7 134,-7 Z"
       id="path8" />
    <path
       transform="translate(3914)"
       d="M 253,-13 Q 214,-13 176,-0.5 138,12 103,42 l 47,89 Q 150,85 173,57.5 196,30 227.5,18 259,6 284,6 342,6 374.5,51 407,96 407,180 407,273 371,319.5 335,366 279,366 238,366 203,340.5 168,315 138,283 l -8,7 q 21,23 47,48.5 26,25.5 59.5,43 Q 270,399 312,399 355,399 391,378.5 427,358 450,317 473,276 473,214 473,138 440.5,87.5 408,37 357.5,12 307,-13 253,-13 Z M 41,-5 Q 37,-6 35,-1.5 33,3 36,5 65,25 79.5,44 94,63 94,103 v 494 q 0,36 -7,52 -7,16 -26,16 -16,0 -45,-13 -4,-2 -6.5,4 -2.5,6 1.5,7 l 125,61 q 3,1 5,1 3,0 6,-2.5 3,-2.5 3,-5.5 V 46 Z"
       id="path9" />
    <path
       transform="translate(4442)"
       d="m 40,0 q -3,0 -3,6 0,6 3,6 39,0 51,13.5 12,13.5 12,55.5 v 517 q 0,35 -7,51.5 -7,16.5 -25,16.5 -15,0 -46,-14 -3,-2 -6,4 -3,6 1,7 l 128,61 q 2,1 5,1 2,0 5.5,-2.5 Q 162,720 162,717 V 81 Q 162,39 173,25.5 184,12 224,12 q 3,0 3,-6 0,-6 -3,-6 Q 207,0 183,1 159,2 132,2 106,2 81.5,1 57,0 40,0 Z"
       id="path10" />
    <path
       transform="translate(4718)"
       d="M 219,-12 Q 159,-12 118,15.5 77,43 56.5,87 36,131 36,180 q 0,61 28,109.5 28,48.5 76.5,77 Q 189,395 247,395 q 57,0 86.5,-30 29.5,-30 29.5,-84 0,-13 -2.5,-19.5 Q 358,255 351,255 h -56 q 4,61 -18,90.5 Q 255,375 214,375 161,375 131.5,333 102,291 102,218 q 0,-57 18,-101 18,-44 53,-69 35,-25 85,-25 34,0 56,10 22,10 44,23 2,2 5.5,-2.5 Q 367,49 365,46 330,15 293.5,1.5 257,-12 219,-12 Z m -135,266 -1,13 227,4 v -16 z"
       id="path11" />
  </g>
  <g
     fill="#111111"
     transform="matrix(0.16,0,0,-0.16,0.96,221.89393)"
     id="g13"
     style="fill:#a0892c">
    <path
       d="m 179,245 13,25 h 280 l 7,-25 z M 711,12 q 4,0 4,-6 0,-6 -4,-6 Q 681,0 649.5,2 618,4 589,4 556,4 531.5,2 507,0 477,0 q -4,0 -4,6 0,6 4,6 45,0 54,16 9,16 -15,63 L 307,516 348,583 150,137 Q 124,76 148.5,44 173,12 232,12 q 5,0 5,-6 0,-6 -5,-6 Q 202,0 177,2 152,4 114,4 76,4 53.5,2 31,0 -2,0 q -4,0 -4,6 0,6 4,6 27,0 46.5,11 Q 64,34 83,63.5 102,93 125,146 l 215,485 q 2,3 9,3 7,0 8,-3 L 602,137 Q 625,89 643,61.5 661,34 677,23 693,12 711,12 Z"
       id="path12"
       style="fill:#a0892c" />
    <path
       transform="translate(771)"
       d="m 217,81 q 0,-29 5.5,-44 5.5,-15 21.5,-20 16,-5 49,-5 3,0 3,-6 0,-6 -3,-6 Q 268,0 237,1 206,2 168,2 133,2 101,1 69,0 44,0 q -3,0 -3,6 0,6 3,6 32,0 49,5 17,5 22.5,20 5.5,15 5.5,44 v 463 q 0,29 -5.5,43.5 -5.5,14.5 -22.5,20 -17,5.5 -49,5.5 -3,0 -3,6 0,6 3,6 25,0 57,-1.5 32,-1.5 67,-1.5 38,0 69.5,1.5 31.5,1.5 55.5,1.5 3,0 3,-6 0,-6 -3,-6 -32,0 -48.5,-6 -16.5,-6 -22,-21 -5.5,-15 -5.5,-44 z"
       id="path13"
       style="fill:#a0892c" />
  </g>
</svg>
